Coordinates
version=1
nRows=11
nColumns=42
inDegrees=yes

Units are S.I. units (second, meters, Newtons, ...)
If the header above contains a line with 'inDegrees', this indicates whether rotational values are in degrees (yes) or radians (no).

endheader
time	pelvis_tilt	pelvis_list	pelvis_rotation	pelvis_tx	pelvis_ty	pelvis_tz	hip_flexion_r	hip_adduction_r	hip_rotation_r	knee_angle_r	knee_adduction_r	knee_angle_r_beta	ankle_angle_r	subtalar_angle_r	mtp_angle_r	hip_flexion_l	hip_adduction_l	hip_rotation_l	knee_angle_l	knee_adduction_l	knee_angle_l_beta	ankle_angle_l	subtalar_angle_l	mtp_angle_l	lumbar_extension	lumbar_bending	lumbar_rotation	arm_flex_r	arm_add_r	arm_rot_r	elbow_flex_r	pro_sup_r	wrist_flex_r	wrist_dev_r	arm_flex_l	arm_add_l	arm_rot_l	elbow_flex_l	pro_sup_l	wrist_flex_l	wrist_dev_l
      6.57000000	      5.74514567	      1.08576774	      1.11536286	     -0.10351457	      0.92168825	      0.25101993	      8.76371251	     -5.73631176	    -22.60502057	     39.85967271	      0.60030063	      0.69568253	     22.41421519	      5.61835252	     -7.50027684	     27.57548314	     -6.06637838	    -13.31546508	     57.78915432	     -1.38549515	      1.00861101	      4.32580595	    -14.31774517	     -7.50027684	    -19.60359821	      6.44201584	     -5.10396515	      8.60262939	    -14.78619048	      4.97151499	     39.21698717	     90.00000001	      0.00000000	      0.00000000	     -5.39849459	    -13.47060816	      7.30785894	     62.77727741	     90.00000001	      0.00000000	      0.00000000
      6.58000000	      5.68131407	      0.81736558	      1.07411657	     -0.10161947	      0.92136142	      0.25166085	      8.64880244	     -5.37156108	    -22.58211296	     39.76245333	      0.62748654	      0.69398573	     22.43304935	      5.66451477	     -7.50027340	     27.93696939	     -6.24949334	    -13.56094505	     56.15835148	     -1.44756696	      0.98014814	      4.43390594	    -13.90361303	     -7.50027340	    -19.55125085	      6.59186301	     -5.01856523	      8.47530566	    -14.85127855	      4.92357350	     39.24238002	     90.00000001	      0.00000000	      0.00000000	     -5.57556242	    -13.41442162	      7.28038691	     62.71391737	     90.00000001	      0.00000000	      0.00000000
      6.59000000	      5.93618796	      0.67769231	      0.93727717	     -0.09959408	      0.92154104	      0.25235749	      8.09023027	     -5.17783622	    -22.51800207	     39.51769611	      0.75446238	      0.68971391	     22.60405489	      5.91771865	     -7.50026505	     27.83599338	     -6.32318815	    -14.51250800	     54.40319093	     -2.01618193	      0.94951481	      4.54796131	    -12.84272838	     -7.50026505	    -19.86344408	      6.55684367	     -4.83148031	      8.45005987	    -14.78926556	      4.83656066	     39.09993515	     90.00000001	      0.00000000	      0.00000000	     -5.54321525	    -13.32079119	      7.03253419	     62.34529077	     90.00000001	      0.00000000	      0.00000000
      6.60000000	      5.91979767	      0.44538352	      0.82122297	     -0.09761951	      0.92126483	      0.25302492	      7.91734693	     -4.83348114	    -22.48751044	     39.36237097	      0.71775946	      0.68700297	     22.67553440	      5.96851083	     -7.50026121	     28.02684772	     -6.44542080	    -14.74566287	     52.75978021	     -2.10413698	      0.92083188	      4.65974087	    -12.33452494	     -7.50026121	    -19.86355708	      6.62809643	     -4.67332615	      8.31445731	    -14.78325098	      4.83040685	     39.11804111	     90.00000001	      0.00000000	      0.00000000	     -5.68818624	    -13.30579603	      6.96320908	     62.27610354	     90.00000001	      0.00000000	      0.00000000
      6.61000000	      6.12177539	      0.26114941	      0.67481412	     -0.09551473	      0.92126922	      0.25368061	      7.44750629	     -4.60515955	    -22.40387186	     39.18835201	      0.85098781	      0.68396577	     22.82126356	      6.11724238	     -7.50025540	     27.89277063	     -6.54295266	    -15.26270868	     51.09717873	     -2.39240041	      0.89181401	      4.70979394	    -11.37257897	     -7.50025540	    -20.10492932	      6.62636454	     -4.49633049	      8.23686238	    -14.75332989	      4.86460306	     39.11725733	     90.00000001	      0.00000000	      0.00000000	     -5.75514817	    -13.27493170	      6.80360735	     62.06825083	     90.00000001	      0.00000000	      0.00000000
      6.62000000	      6.19233606	      0.02380700	      0.49987241	     -0.09332741	      0.92101028	      0.25435280	      7.17510852	     -4.24590009	    -22.31506580	     39.04462370	      0.79313329	      0.68145724	     22.99582341	      6.40042515	     -7.50024405	     27.91722690	     -6.72750015	    -16.09405047	     49.58066862	     -2.94585932	      0.86534591	      5.12108447	     -9.59693944	     -7.50024405	    -20.18311058	      6.66691575	     -4.37464153	      8.16675472	    -14.78170535	      4.99478749	     39.16264745	     90.00000001	      0.00000000	      0.00000000	     -5.90415637	    -13.13270062	      6.55919681	     61.81375069	     90.00000001	      0.00000000	      0.00000000
      6.63000000	      6.13365605	     -0.34080144	      0.35119430	     -0.09121923	      0.92039802	      0.25496380	      7.08510349	     -3.93066817	    -22.41221758	     39.09953024	      0.98037095	      0.68241554	     23.01940415	      6.40545826	     -7.50024219	     28.13503516	     -7.04201929	    -16.14117749	     48.37120949	     -2.96190006	      0.84423687	      5.17053695	     -9.38505245	     -7.50024219	    -20.10543190	      6.87331724	     -4.15792512	      8.08492986	    -14.68310531	      5.03130358	     39.23151714	     90.00000001	      0.00000000	      0.00000000	     -6.10584706	    -13.22456108	      6.51330835	     61.77182281	     90.00000001	      0.00000000	      0.00000000
      6.64000000	      6.39296199	     -0.43063961	      0.10916897	     -0.08889677	      0.92048251	      0.25562016	      6.55953373	     -3.69236624	    -22.08695580	     38.84364387	      0.93723047	      0.67794948	     23.28531109	      6.59148448	     -7.50023271	     27.72274853	     -7.02784071	    -16.83534995	     46.76964462	     -3.41313884	      0.81628429	      5.30956883	     -7.53489742	     -7.50023271	    -20.38747389	      6.71120225	     -3.98422581	      7.99709353	    -14.69794603	      5.31004836	     39.33373601	     90.00000001	      0.00000000	      0.00000000	     -6.20946663	    -13.12139444	      6.28379995	     61.50629759	     90.00000001	      0.00000000	      0.00000000
      6.65000000	      6.32879885	     -0.77955649	     -0.08533947	     -0.08671680	      0.91980757	      0.25619393	      6.51941167	     -3.34373142	    -22.09382744	     38.94806021	      1.01217520	      0.67977189	     23.29317956	      6.60968823	     -7.50023103	     27.85906516	     -7.29986701	    -16.82982595	     45.74069296	     -3.48530462	      0.79832569	      5.35849261	     -7.34241585	     -7.50023103	    -20.30885988	      6.88113507	     -3.80983778	      7.95120344	    -14.62140577	      5.34615181	     39.41918610	     90.00000001	      0.00000000	      0.00000000	     -6.44521356	    -13.15134484	      6.26432850	     61.45407481	     90.00000001	      0.00000000	      0.00000000
      6.66000000	      6.53930909	     -0.87873582	     -0.33917456	     -0.08438343	      0.91972857	      0.25679884	      6.09076486	     -3.13620648	    -21.77831895	     38.79173443	      1.00230856	      0.67704349	     23.56631097	      6.67687694	     -7.50022618	     27.44114387	     -7.28093294	    -17.12906921	     44.41869074	     -3.71549173	      0.77525240	      5.34574095	     -6.14826528	     -7.50022618	    -20.53080560	      6.71109306	     -3.64739007	      7.91621607	    -14.60677168	      5.56972747	     39.51134637	     90.00000001	      0.00000000	      0.00000000	     -6.56804223	    -13.07963328	      6.11454780	     61.22965033	     90.00000001	      0.00000000	      0.00000000
      6.67000000	      6.47208908	     -1.18130061	     -0.54127922	     -0.08208562	      0.91901816	      0.25734392	      6.06605868	     -2.79274696	    -21.71629387	     38.88958849	      0.98744117	      0.67875136	     23.58283273	      6.69751327	     -7.50022466	     27.50472622	     -7.51880441	    -17.15475146	     43.62024656	     -3.82549257	      0.76131692	      5.41412768	     -5.95028034	     -7.50022466	    -20.42932099	      6.80444696	     -3.50920608	      7.86588072	    -14.49683974	      5.62430355	     39.59788108	     90.00000001	      0.00000000	      0.00000000	     -6.82176791	    -13.10687007	      6.08931936	     61.14435277	     90.00000001	      0.00000000	      0.00000000
